<svg xmlns="http://www.w3.org/2000/svg" width="119.165" height="42.224" viewBox="0 0 119.165 42.224">
  <g id="Group_1431" data-name="Group 1431" transform="translate(-55.412 -68.972)">
    <g id="Group_574" data-name="Group 574" transform="translate(-773.588 -351.525)">
      <path id="Path_667" data-name="Path 667" d="M0,.443H46.7A17.655,17.655,0,0,1,51.142.9a8.056,8.056,0,0,1,2.736,1.209,4.117,4.117,0,0,1,1.4,1.7,5,5,0,0,1,.4,1.941v.19a3.9,3.9,0,0,1-.4,1.8,4.582,4.582,0,0,1-1.065,1.369,6.02,6.02,0,0,1-1.511.969,8.494,8.494,0,0,1-1.735.574,11.818,11.818,0,0,1,2.243.6A6.6,6.6,0,0,1,55.167,12.4a5.463,5.463,0,0,1,1.383,1.83,6.186,6.186,0,0,1,.526,2.688v.254a6.8,6.8,0,0,1-.526,2.657,5.53,5.53,0,0,1-1.734,2.211,9.081,9.081,0,0,1-3.2,1.511,18.508,18.508,0,0,1-4.915.556H0Z" transform="translate(829 420.755)"/>
      <rect id="Rectangle_184" data-name="Rectangle 184" width="12.056" height="23.669" transform="translate(890.371 421.199)"/>
      <rect id="Rectangle_185" data-name="Rectangle 185" width="12.056" height="23.669" transform="translate(905.98 421.199)"/>
      <path id="Path_668" data-name="Path 668" d="M60.01,2.959V22.111a2.955,2.955,0,0,0,4.318,2.622l18.419-9.577a2.954,2.954,0,0,0,0-5.242L64.328.337A2.955,2.955,0,0,0,60.01,2.959" transform="translate(863.827 420.498)"/>
    </g>
    <path id="Path_1339" data-name="Path 1339" d="M.882-10h1.6v3.7h.028a2.2,2.2,0,0,1,.406-.476,2.54,2.54,0,0,1,.525-.357,2.746,2.746,0,0,1,.6-.224,2.617,2.617,0,0,1,.623-.077,3.457,3.457,0,0,1,1.491.3,2.94,2.94,0,0,1,1.057.826,3.588,3.588,0,0,1,.63,1.225,5.188,5.188,0,0,1,.21,1.5A5.3,5.3,0,0,1,7.861-2.17,3.678,3.678,0,0,1,7.287-.959a2.869,2.869,0,0,1-.973.84A2.894,2.894,0,0,1,4.928.2,5.608,5.608,0,0,1,4.193.147a2.774,2.774,0,0,1-.707-.189,2.423,2.423,0,0,1-.609-.364,1.771,1.771,0,0,1-.455-.588H2.394V0H.882ZM6.454-3.612a3.6,3.6,0,0,0-.126-.952,2.587,2.587,0,0,0-.378-.819,1.952,1.952,0,0,0-.63-.574,1.712,1.712,0,0,0-.868-.217,1.76,1.76,0,0,0-1.519.7,3.089,3.089,0,0,0-.511,1.862A3.708,3.708,0,0,0,2.555-2.6a2.284,2.284,0,0,0,.4.8,1.992,1.992,0,0,0,.637.532,1.817,1.817,0,0,0,.861.2,1.783,1.783,0,0,0,.924-.224A1.954,1.954,0,0,0,6-1.869a2.356,2.356,0,0,0,.35-.812A4.127,4.127,0,0,0,6.454-3.612Zm7.91-.644a2.574,2.574,0,0,0-.161-.728,1.94,1.94,0,0,0-.364-.609,1.8,1.8,0,0,0-.56-.42,1.65,1.65,0,0,0-.735-.161,1.918,1.918,0,0,0-.763.147,1.745,1.745,0,0,0-.588.406,2.008,2.008,0,0,0-.392.609,2.125,2.125,0,0,0-.161.756ZM10.64-3.206a2.78,2.78,0,0,0,.119.812,2,2,0,0,0,.357.686,1.721,1.721,0,0,0,.6.469,1.986,1.986,0,0,0,.868.175,1.917,1.917,0,0,0,1.127-.3,1.779,1.779,0,0,0,.637-.9h1.512a3.009,3.009,0,0,1-.434,1.05,3.02,3.02,0,0,1-.742.777,3.2,3.2,0,0,1-.973.476A3.917,3.917,0,0,1,12.586.2a3.832,3.832,0,0,1-1.512-.28A3.126,3.126,0,0,1,9.961-.868a3.327,3.327,0,0,1-.686-1.2,4.891,4.891,0,0,1-.231-1.54,4.357,4.357,0,0,1,.245-1.463,3.745,3.745,0,0,1,.7-1.218,3.348,3.348,0,0,1,1.1-.833,3.333,3.333,0,0,1,1.456-.308,3.244,3.244,0,0,1,1.533.357,3.364,3.364,0,0,1,1.127.945,3.826,3.826,0,0,1,.651,1.351,4.141,4.141,0,0,1,.1,1.575Zm5.81-4.032h1.2v-2.17h1.6v2.17h1.442v1.19H19.25v3.864a3.854,3.854,0,0,0,.021.434.749.749,0,0,0,.1.308.468.468,0,0,0,.231.189,1.137,1.137,0,0,0,.42.063q.168,0,.336-.007a1.669,1.669,0,0,0,.336-.049V-.014l-.518.056a4.689,4.689,0,0,1-.518.028,3.533,3.533,0,0,1-1.015-.119,1.355,1.355,0,0,1-.6-.35,1.208,1.208,0,0,1-.294-.581,4.372,4.372,0,0,1-.091-.8v-4.27h-1.2ZM27.9-1.61a.847.847,0,0,0,.077.42.325.325,0,0,0,.3.126h.168a1.046,1.046,0,0,0,.224-.028V.014q-.084.028-.217.063T28.182.14q-.14.028-.28.042T27.664.2a1.539,1.539,0,0,1-.812-.2.976.976,0,0,1-.42-.686,2.823,2.823,0,0,1-1.169.672A4.6,4.6,0,0,1,23.926.2a3.279,3.279,0,0,1-.938-.133A2.462,2.462,0,0,1,22.2-.329a1.879,1.879,0,0,1-.546-.658,2.027,2.027,0,0,1-.2-.931,2.15,2.15,0,0,1,.245-1.092,1.815,1.815,0,0,1,.644-.658,2.908,2.908,0,0,1,.9-.343q.5-.105,1-.161a8.19,8.19,0,0,1,.826-.119,3.876,3.876,0,0,0,.693-.119,1.061,1.061,0,0,0,.476-.259.713.713,0,0,0,.175-.525.818.818,0,0,0-.147-.5.987.987,0,0,0-.364-.3,1.572,1.572,0,0,0-.483-.14,3.871,3.871,0,0,0-.5-.035,2,2,0,0,0-1.106.28,1.092,1.092,0,0,0-.49.868h-1.6a2.4,2.4,0,0,1,.336-1.162A2.321,2.321,0,0,1,22.8-6.93a3.064,3.064,0,0,1,1.029-.392A6.127,6.127,0,0,1,25-7.434a4.954,4.954,0,0,1,1.05.112,2.982,2.982,0,0,1,.931.364,2.016,2.016,0,0,1,.665.651,1.786,1.786,0,0,1,.252.973Zm-1.6-2.016a1.937,1.937,0,0,1-.9.287q-.532.049-1.064.147a3.412,3.412,0,0,0-.49.119,1.476,1.476,0,0,0-.42.21.922.922,0,0,0-.287.35,1.2,1.2,0,0,0-.1.525.67.67,0,0,0,.154.448,1.119,1.119,0,0,0,.371.287,1.718,1.718,0,0,0,.476.147,2.955,2.955,0,0,0,.469.042,2.6,2.6,0,0,0,.574-.07,1.909,1.909,0,0,0,.581-.238,1.53,1.53,0,0,0,.455-.427,1.08,1.08,0,0,0,.182-.637Z" transform="translate(55 111)"/>
  </g>
</svg>
