<svg xmlns="http://www.w3.org/2000/svg" width="252.002" height="548" viewBox="0 0 252.002 548">
  <path id="Exclusion_10" data-name="Exclusion 10" d="M10842-1780h-176a37.762,37.762,0,0,1-14.792-2.986,37.87,37.87,0,0,1-12.079-8.144,37.9,37.9,0,0,1-8.144-12.079A37.788,37.788,0,0,1,10628-1818v-472a37.787,37.787,0,0,1,2.985-14.791,37.887,37.887,0,0,1,8.144-12.079,37.87,37.87,0,0,1,12.079-8.144A37.758,37.758,0,0,1,10666-2328h176a37.757,37.757,0,0,1,14.791,2.986,37.87,37.87,0,0,1,12.079,8.144,37.876,37.876,0,0,1,8.144,12.079A37.765,37.765,0,0,1,10880-2290v472a37.765,37.765,0,0,1-2.986,14.791,37.88,37.88,0,0,1-8.144,12.079,37.872,37.872,0,0,1-12.079,8.144A37.761,37.761,0,0,1,10842-1780Zm-175.453-509.556a22.864,22.864,0,0,0-8.953,1.807,22.921,22.921,0,0,0-7.31,4.929,22.913,22.913,0,0,0-4.929,7.311,22.861,22.861,0,0,0-1.808,8.952v423.113a22.862,22.862,0,0,0,1.808,8.953,22.914,22.914,0,0,0,4.929,7.311,22.923,22.923,0,0,0,7.31,4.929,22.862,22.862,0,0,0,8.953,1.807h171.9a22.866,22.866,0,0,0,8.953-1.807,22.93,22.93,0,0,0,7.311-4.929,22.917,22.917,0,0,0,4.931-7.311,22.862,22.862,0,0,0,1.808-8.953v-423.113a22.861,22.861,0,0,0-1.808-8.952,22.91,22.91,0,0,0-4.931-7.311,22.917,22.917,0,0,0-7.311-4.929,22.864,22.864,0,0,0-8.953-1.807Z" transform="translate(-10628.001 2327.999)" fill="#fff"/>
</svg>
