<svg id="Group_1516" data-name="Group 1516" xmlns="http://www.w3.org/2000/svg" width="324" height="453" viewBox="0 0 324 453">
  <path id="Exclusion_4" data-name="Exclusion 4" d="M245,453H79a79.589,79.589,0,0,1-15.921-1.605A78.564,78.564,0,0,1,34.83,439.508,79.23,79.23,0,0,1,6.208,404.75a78.612,78.612,0,0,1-4.6-14.829A79.59,79.59,0,0,1,0,374V79A79.59,79.59,0,0,1,1.6,63.079,78.565,78.565,0,0,1,13.492,34.83,79.228,79.228,0,0,1,48.25,6.208a78.608,78.608,0,0,1,14.829-4.6A79.589,79.589,0,0,1,79,0H245a79.587,79.587,0,0,1,15.921,1.605,78.569,78.569,0,0,1,28.248,11.887A79.232,79.232,0,0,1,317.792,48.25a78.605,78.605,0,0,1,4.6,14.829A79.585,79.585,0,0,1,324,79V374a79.584,79.584,0,0,1-1.605,15.921,78.567,78.567,0,0,1-11.887,28.249,79.233,79.233,0,0,1-34.758,28.622,78.61,78.61,0,0,1-14.829,4.6A79.587,79.587,0,0,1,245,453ZM71.608,34.112a46.96,46.96,0,0,0-47,47V371.888a46.96,46.96,0,0,0,47,47H252.392a46.961,46.961,0,0,0,47-47V81.112a46.961,46.961,0,0,0-47-47Z" fill="#fff"/>
</svg>
