<svg xmlns="http://www.w3.org/2000/svg" width="357.999" height="771" viewBox="0 0 357.999 771">
  <path id="Exclusion_7" data-name="Exclusion 7" d="M10948-1557h-282a37.757,37.757,0,0,1-14.791-2.987,37.872,37.872,0,0,1-12.079-8.144,37.873,37.873,0,0,1-8.143-12.079A37.768,37.768,0,0,1,10628-1595v-695a37.763,37.763,0,0,1,2.986-14.791,37.87,37.87,0,0,1,8.143-12.078,37.876,37.876,0,0,1,12.079-8.143A37.765,37.765,0,0,1,10666-2328h282a37.76,37.76,0,0,1,14.79,2.986,37.9,37.9,0,0,1,12.079,8.143,37.9,37.9,0,0,1,8.144,12.078A37.766,37.766,0,0,1,10986-2290v695a37.77,37.77,0,0,1-2.986,14.792,37.9,37.9,0,0,1-8.144,12.079,37.883,37.883,0,0,1-12.079,8.144A37.752,37.752,0,0,1,10948-1557Zm-257.071-716.913a37.77,37.77,0,0,0-14.792,2.986,37.863,37.863,0,0,0-12.077,8.144,37.87,37.87,0,0,0-8.144,12.079,37.767,37.767,0,0,0-2.986,14.792v586.823a37.764,37.764,0,0,0,2.986,14.791,37.854,37.854,0,0,0,8.144,12.078,37.868,37.868,0,0,0,12.077,8.143,37.771,37.771,0,0,0,14.792,2.986h232.142a37.758,37.758,0,0,0,14.79-2.986,37.87,37.87,0,0,0,12.078-8.143,37.881,37.881,0,0,0,8.144-12.078,37.766,37.766,0,0,0,2.986-14.791v-586.823a37.767,37.767,0,0,0-2.986-14.792,37.876,37.876,0,0,0-8.144-12.079,37.867,37.867,0,0,0-12.078-8.144,37.757,37.757,0,0,0-14.79-2.986Z" transform="translate(-10628.001 2327.999)" fill="#fff"/>
</svg>
