<svg id="Group_1553" data-name="Group 1553" xmlns="http://www.w3.org/2000/svg" xmlns:xlink="http://www.w3.org/1999/xlink" width="91.017" height="9.891" viewBox="0 0 91.017 9.891">
  <defs>
    <clipPath id="clip-path">
      <rect id="Rectangle_498" data-name="Rectangle 498" width="9.165" height="4.225" fill="none"/>
    </clipPath>
  </defs>
  <g id="Group_581" data-name="Group 581" transform="translate(0 0.58)" opacity="0.466">
    <path id="Path_667" data-name="Path 667" d="M0,.443H16.035A6.062,6.062,0,0,1,17.559.6a2.766,2.766,0,0,1,.939.415,1.414,1.414,0,0,1,.481.584,1.715,1.715,0,0,1,.137.666v.065a1.339,1.339,0,0,1-.137.617,1.573,1.573,0,0,1-.366.47,2.067,2.067,0,0,1-.519.333,2.916,2.916,0,0,1-.6.2,4.058,4.058,0,0,1,.77.207,2.265,2.265,0,0,1,.672.393,1.876,1.876,0,0,1,.475.628A2.124,2.124,0,0,1,19.6,6.1v.087a2.336,2.336,0,0,1-.181.912,1.9,1.9,0,0,1-.6.759,3.118,3.118,0,0,1-1.1.519,6.354,6.354,0,0,1-1.687.191H0Z" transform="translate(0 -0.202)" fill="#fff"/>
    <rect id="Rectangle_184" data-name="Rectangle 184" width="4.139" height="8.126" transform="translate(21.071 0.241)" fill="#fff"/>
    <rect id="Rectangle_185" data-name="Rectangle 185" width="4.139" height="8.126" transform="translate(26.43 0.241)" fill="#fff"/>
    <path id="Path_668" data-name="Path 668" d="M60.01,1.016V7.591a1.014,1.014,0,0,0,1.482.9L67.816,5.2a1.014,1.014,0,0,0,0-1.8L61.492.115a1.014,1.014,0,0,0-1.482.9" transform="translate(-27.449 0)" fill="#fff"/>
  </g>
  <g id="Group_582" data-name="Group 582" transform="translate(73.783 2.442)">
    <path id="Exclusion_1" data-name="Exclusion 1" d="M3.5,3.974A5.194,5.194,0,0,1,.051,2.128a.222.222,0,0,1,0-.282A5.192,5.192,0,0,1,3.5,0,5.189,5.189,0,0,1,6.941,1.846a.221.221,0,0,1,0,.282A5.155,5.155,0,0,1,3.5,3.974ZM3.5.607a1.38,1.38,0,1,0,1.38,1.38A1.382,1.382,0,0,0,3.5.607Zm0,2.318a.938.938,0,1,1,.939-.938A.939.939,0,0,1,3.5,2.925Z" transform="translate(0 0.473)" fill="#fff"/>
    <g id="Group_1415" data-name="Group 1415" transform="translate(8.069 0)">
      <path id="Path_1153" data-name="Path 1153" d="M1.02.14,0,.626v.529L1.026.662V3.738H.169V4.2H2.417V3.738H1.571V.14Z" transform="translate(0 -0.053)" fill="#fff"/>
      <rect id="Rectangle_497" data-name="Rectangle 497" width="0.96" height="1.102" transform="translate(3.857 3.044)" fill="#fff"/>
      <g id="Group_1416" data-name="Group 1416" transform="translate(0 0)">
        <g id="Group_1415-2" data-name="Group 1415" clip-path="url(#clip-path)">
          <path id="Path_1154" data-name="Path 1154" d="M11.341,1.983a1,1,0,0,1-.549-.336.915.915,0,0,1-.2-.592.968.968,0,0,1,.33-.771,1.327,1.327,0,0,1,.9-.285,1.332,1.332,0,0,1,.9.285.968.968,0,0,1,.33.771.911.911,0,0,1-.2.592,1,1,0,0,1-.549.336,1.053,1.053,0,0,1,.626.362,1.1,1.1,0,0,1,.217.707,1.089,1.089,0,0,1-.351.862,1.42,1.42,0,0,1-.974.31,1.42,1.42,0,0,1-.973-.309,1.084,1.084,0,0,1-.35-.858,1.113,1.113,0,0,1,.217-.711,1.053,1.053,0,0,1,.626-.364m.48.229a.759.759,0,0,0-.569.205.8.8,0,0,0-.2.583.8.8,0,0,0,.2.585.751.751,0,0,0,.566.209.763.763,0,0,0,.572-.206.813.813,0,0,0,.2-.588.793.793,0,0,0-.2-.581.762.762,0,0,0-.569-.207m-.679-1.1a.67.67,0,0,0,.174.5.83.83,0,0,0,1.012,0,.667.667,0,0,0,.174-.5A.687.687,0,0,0,12.33.6a.818.818,0,0,0-1.013,0,.689.689,0,0,0-.174.506" transform="translate(-3.982 0)" fill="#fff"/>
        </g>
      </g>
    </g>
  </g>
  <g id="Group_1414" data-name="Group 1414" transform="translate(45.625 0)">
    <rect id="Rectangle_496" data-name="Rectangle 496" width="24.02" height="9.89" rx="4" transform="translate(0)" fill="red"/>
    <g id="Group_1413" data-name="Group 1413" transform="translate(5.784 2.848)">
      <path id="Path_1149" data-name="Path 1149" d="M0,0V4.072H2.526V3.363H.8V0Z" transform="translate(0 0)" fill="#fff"/>
      <path id="Path_1150" data-name="Path 1150" d="M5.186,0V.709H6V3.363h-.81v.709H7.611V3.363H6.8V.709h.811V0Z" transform="translate(-1.967 0)" fill="#fff"/>
      <path id="Path_1151" data-name="Path 1151" d="M12.341,0l-.718,3.4L10.908,0H10.1l.968,4.072h1.116L13.151,0Z" transform="translate(-3.831 0)" fill="#fff"/>
      <path id="Path_1152" data-name="Path 1152" d="M16.006,0V4.072h2.537V3.363H16.81V2.3h1.568V1.587H16.81V.709h1.732V0Z" transform="translate(-6.071 0)" fill="#fff"/>
    </g>
  </g>
</svg>
