<svg xmlns="http://www.w3.org/2000/svg" width="286" height="400" viewBox="0 0 286 400">
  <g id="Group_1430" data-name="Group 1430" transform="translate(0 0)">
    <path id="Exclusion_4" data-name="Exclusion 4" d="M207,400H79a79.591,79.591,0,0,1-15.921-1.6A78.57,78.57,0,0,1,34.83,386.508,79.228,79.228,0,0,1,6.208,351.75a78.6,78.6,0,0,1-4.6-14.829A79.587,79.587,0,0,1,0,321V79A79.59,79.59,0,0,1,1.6,63.079,78.57,78.57,0,0,1,13.492,34.83,79.229,79.229,0,0,1,48.25,6.208,78.6,78.6,0,0,1,63.079,1.6,79.59,79.59,0,0,1,79,0H207a79.588,79.588,0,0,1,15.921,1.6A78.57,78.57,0,0,1,251.17,13.492,79.23,79.23,0,0,1,279.792,48.25a78.6,78.6,0,0,1,4.6,14.829A79.585,79.585,0,0,1,286,79V321a79.582,79.582,0,0,1-1.605,15.921,78.567,78.567,0,0,1-11.887,28.248,79.231,79.231,0,0,1-34.758,28.622,78.6,78.6,0,0,1-14.829,4.6A79.588,79.588,0,0,1,207,400ZM68.721,30.12a46.961,46.961,0,0,0-47,47V322.88a46.961,46.961,0,0,0,47,47H217.278a46.961,46.961,0,0,0,47-47V77.12a46.961,46.961,0,0,0-47-47Z" fill="#fff"/>
  </g>
</svg>
