<svg xmlns="http://www.w3.org/2000/svg" width="346" height="54.37" viewBox="0 0 346 54.37">
  <g id="Group_1562" data-name="Group 1562" transform="translate(-60 -684)">
    <g id="Rectangle_557" data-name="Rectangle 557" transform="translate(60 684)" fill="none" stroke="#000" stroke-width="1">
      <rect width="346" height="54.37" rx="14" stroke="none"/>
      <rect x="0.5" y="0.5" width="345" height="53.37" rx="13.5" fill="none"/>
    </g>
    <g id="Group_1545" data-name="Group 1545" transform="translate(155.788 697)">
      <path id="Path_1327" data-name="Path 1327" d="M7.664,14.627v-2.5H5.889V9.942H9.932v6.012a5.317,5.317,0,0,1-1.648.971,5.571,5.571,0,0,1-1.929.33,4.713,4.713,0,0,1-3.937-1.771,7.992,7.992,0,0,1-1.389-5.032A7.937,7.937,0,0,1,2.43,5.39,4.883,4.883,0,0,1,6.478,3.641a5.5,5.5,0,0,1,1.556.224,5.64,5.64,0,0,1,1.433.646V7.385A3.678,3.678,0,0,0,8.213,6.326,3.4,3.4,0,0,0,6.662,5.97,2.46,2.46,0,0,0,4.456,7.082a6.225,6.225,0,0,0-.729,3.371,6.421,6.421,0,0,0,.7,3.331,2.262,2.262,0,0,0,2.048,1.143,2.923,2.923,0,0,0,.7-.075A1.234,1.234,0,0,0,7.664,14.627Zm12.858,1.89a9.787,9.787,0,0,1-1.828.554,10.117,10.117,0,0,1-1.969.185,5.071,5.071,0,0,1-3.775-1.323,5.2,5.2,0,0,1-1.305-3.81A5.482,5.482,0,0,1,12.9,8.316a4.378,4.378,0,0,1,3.428-1.4,4.416,4.416,0,0,1,3.4,1.3,5.153,5.153,0,0,1,1.208,3.652v1.046H14.265a2.162,2.162,0,0,0,.686,1.731,3.07,3.07,0,0,0,2.021.571,6.133,6.133,0,0,0,1.749-.255,8.128,8.128,0,0,0,1.8-.809Zm-2.18-5.537a2.194,2.194,0,0,0-.523-1.542,1.979,1.979,0,0,0-1.49-.523,1.886,1.886,0,0,0-1.415.541,2.465,2.465,0,0,0-.624,1.534Zm9.4-6.618V7.156H31.1V9.134H27.738v4.658a1.211,1.211,0,0,0,.321.945,1.6,1.6,0,0,0,1.068.286H31.1V17H28.942a4.61,4.61,0,0,1-3-.708,3.468,3.468,0,0,1-.782-2.624V9.134H22.649V7.156h2.514V4.361Zm21.674,0V7.156h3.366V9.134H49.412v4.658a1.211,1.211,0,0,0,.321.945,1.6,1.6,0,0,0,1.068.286h1.978V17H50.616a4.61,4.61,0,0,1-3-.708,3.468,3.468,0,0,1-.782-2.624V9.134H44.323V7.156h2.514V4.361ZM63.6,10.61V17H61.04V11.006a2.858,2.858,0,0,0-.3-1.521,1.1,1.1,0,0,0-.989-.457,1.238,1.238,0,0,0-1.1.62,3.181,3.181,0,0,0-.4,1.718V17H55.7V3.324h2.558V8.633a2.394,2.394,0,0,1,.932-1.266,2.761,2.761,0,0,1,1.591-.448,2.494,2.494,0,0,1,2.109.927A4.5,4.5,0,0,1,63.6,10.61Zm11.109,5.906a9.787,9.787,0,0,1-1.828.554,10.117,10.117,0,0,1-1.969.185,5.071,5.071,0,0,1-3.775-1.323,5.2,5.2,0,0,1-1.305-3.81,5.482,5.482,0,0,1,1.257-3.806,5,5,0,0,1,6.825-.1,5.153,5.153,0,0,1,1.208,3.652v1.046H68.449a2.162,2.162,0,0,0,.686,1.731,3.07,3.07,0,0,0,2.021.571,6.133,6.133,0,0,0,1.749-.255,8.128,8.128,0,0,0,1.8-.809Zm-2.18-5.537A2.194,2.194,0,0,0,72,9.437a1.979,1.979,0,0,0-1.49-.523,1.886,1.886,0,0,0-1.415.541,2.465,2.465,0,0,0-.624,1.534ZM92.109,6.251l-1.222,5.37H93.34ZM90.527,3.878H93.7L97.242,17H94.649l-.809-3.243H90.369L89.578,17H86.985Zm10.89,11.733v5.133H98.851V7.156h2.566V8.633A3.035,3.035,0,0,1,102.48,7.35a2.764,2.764,0,0,1,1.547-.431,3,3,0,0,1,2.619,1.354,6.673,6.673,0,0,1,.932,3.814,6.586,6.586,0,0,1-.945,3.832,3.1,3.1,0,0,1-2.694,1.336,2.546,2.546,0,0,1-1.419-.409A3.525,3.525,0,0,1,101.417,15.611ZM105,12.069a4.421,4.421,0,0,0-.475-2.232,1.458,1.458,0,0,0-1.31-.809,1.477,1.477,0,0,0-1.318.809,4.354,4.354,0,0,0-.483,2.232A4.354,4.354,0,0,0,101.9,14.3a1.477,1.477,0,0,0,1.318.809,1.458,1.458,0,0,0,1.31-.809A4.421,4.421,0,0,0,105,12.069Zm7.251,3.542v5.133h-2.566V7.156h2.566V8.633a3.035,3.035,0,0,1,1.063-1.283,2.764,2.764,0,0,1,1.547-.431,3,3,0,0,1,2.619,1.354,6.673,6.673,0,0,1,.932,3.814,6.586,6.586,0,0,1-.945,3.832,3.1,3.1,0,0,1-2.694,1.336,2.546,2.546,0,0,1-1.419-.409A3.525,3.525,0,0,1,112.254,15.611Zm3.586-3.542a4.421,4.421,0,0,0-.475-2.232,1.458,1.458,0,0,0-1.31-.809,1.477,1.477,0,0,0-1.318.809,4.354,4.354,0,0,0-.483,2.232,4.354,4.354,0,0,0,.483,2.232,1.477,1.477,0,0,0,1.318.809,1.458,1.458,0,0,0,1.31-.809A4.421,4.421,0,0,0,115.84,12.069Z" transform="translate(37.506 4.626)"/>
      <g id="Group_1540" data-name="Group 1540">
        <path id="Path_1325" data-name="Path 1325" d="M125.847,153.08c-2.4,4.162-.874,10.478,1.778,14.307,1.324,1.915,2.664,3.634,4.5,3.634l.1,0a5.552,5.552,0,0,0,2.089-.556,5.72,5.72,0,0,1,2.474-.586,5.381,5.381,0,0,1,2.355.567,4.986,4.986,0,0,0,2.256.541c2.068-.038,3.338-1.893,4.458-3.529a15.639,15.639,0,0,0,1.953-4l.008-.025a.233.233,0,0,0-.124-.285l-.017-.007a5.927,5.927,0,0,1-3.592-5.428,6.1,6.1,0,0,1,2.883-5.1l.023-.014a.232.232,0,0,0,.066-.326,6.709,6.709,0,0,0-5.278-2.866c-.15-.015-.3-.023-.46-.023a9.2,9.2,0,0,0-3.313.827,5.319,5.319,0,0,1-1.586.474,5.191,5.191,0,0,1-1.641-.48,7.956,7.956,0,0,0-2.893-.735h-.073a7.093,7.093,0,0,0-5.97,3.614" transform="translate(-124.651 -142.651)"/>
        <path id="Path_1326" data-name="Path 1326" d="M245.425,80.878a6.477,6.477,0,0,0-4.276,2.194,6.067,6.067,0,0,0-1.537,4.5.233.233,0,0,0,.213.2c.1.008.2.011.3.011a5.48,5.48,0,0,0,4.036-2.07,6.4,6.4,0,0,0,1.5-4.629.234.234,0,0,0-.241-.207" transform="translate(-228.29 -80.878)"/>
      </g>
    </g>
  </g>
</svg>
